<?xml version="1.0" encoding="UTF-8" standalone="no"?>
<svg
   xmlns:dc="http://purl.org/dc/elements/1.1/"
   xmlns:cc="http://creativecommons.org/ns#"
   xmlns:rdf="http://www.w3.org/1999/02/22-rdf-syntax-ns#"
   xmlns:svg="http://www.w3.org/2000/svg"
   xmlns="http://www.w3.org/2000/svg"
   xmlns:sodipodi="http://sodipodi.sourceforge.net/DTD/sodipodi-0.dtd"
   xmlns:inkscape="http://www.inkscape.org/namespaces/inkscape"
   version="1.1"
   id="Lager_1"
   x="0px"
   y="0px"
   viewBox="0 0 300 97"
   style="enable-background:new 0 0 300 97;"
   xml:space="preserve"
   sodipodi:docname="logo_white-notext-mk.svg"
   inkscape:version="1.0.2 (e86c8708, 2021-01-15)"><metadata
   id="metadata1361"><rdf:RDF><cc:Work
       rdf:about=""><dc:format>image/svg+xml</dc:format><dc:type
         rdf:resource="http://purl.org/dc/dcmitype/StillImage" /><dc:title></dc:title></cc:Work></rdf:RDF></metadata><defs
   id="defs1359" /><sodipodi:namedview
   pagecolor="#ffffff"
   bordercolor="#666666"
   borderopacity="1"
   objecttolerance="10"
   gridtolerance="10"
   guidetolerance="10"
   inkscape:pageopacity="0"
   inkscape:pageshadow="2"
   inkscape:window-width="1748"
   inkscape:window-height="959"
   id="namedview1357"
   showgrid="false"
   inkscape:zoom="3.6533333"
   inkscape:cx="150"
   inkscape:cy="48.5"
   inkscape:window-x="0"
   inkscape:window-y="25"
   inkscape:window-maximized="0"
   inkscape:current-layer="Lager_1" />
<style
   type="text/css"
   id="style1320">
	.st0{fill:#FFFFFF;}
</style>
<g
   id="g1354"
   transform="translate(0,-14)">
	<polygon
   class="st0"
   points="41.62,40.1 41.62,32.43 4.81,32.43 4.81,66.33 14.51,66.33 14.51,53.27 32.92,53.27 32.92,45.61 14.51,45.61 14.51,40.1 "
   id="polygon1322" />
	<path
   class="st0"
   d="M 104.6,43.84 C 104.6,37.12 99.25,32.43 91.09,32.43 H 62.6 V 66.33 H 72.3 V 55.36 H 87.13 L 95.12,66.33 H 106.14 L 97.49,54.2 C 102.18,52.39 104.6,48.86 104.6,43.84 Z M 90.22,47.7 H 72.3 V 40.1 H 90.16 C 93.25,40.1 95.01,41.53 95.01,43.68 95.01,46.05 93.19,47.7 90.22,47.7 Z"
   id="path1324" />
	<path
   class="st0"
   d="M 143.88,32.43 125.08,66.33 H 135.06 L 138.97,59.33 H 159.8 L 163.71,66.33 H 173.69 L 154.9,32.43 Z M 143.28,51.67 149.4,40.48 155.52,51.67 Z"
   id="path1326" />
	<polygon
   class="st0"
   points="198.58,43.96 219.91,66.33 231.21,66.33 231.21,32.43 221.51,32.43 221.51,54.81 221.4,54.81 199.96,32.43 188.71,32.43 188.71,66.33 198.41,66.33 198.41,43.96 "
   id="polygon1328" />
	<polygon
   class="st0"
   points="259.58,56.25 267.41,50.95 283.12,66.33 295.96,66.33 274.85,45.94 294.8,32.43 280.97,32.43 259.58,46.93 259.58,32.43 249.88,32.43 249.88,66.33 259.58,66.33 "
   id="polygon1330" />
	<rect
   x="217.17"
   y="17.639999"
   class="st0"
   width="79.150002"
   height="1.0700001"
   id="rect1332" />
	<rect
   x="4.3600001"
   y="17.639999"
   class="st0"
   width="79.010002"
   height="1.0700001"
   id="rect1334" />
	<polygon
   class="st0"
   points="90.82,14.21 90.82,21.89 93.03,21.89 93.03,18.93 97.22,18.93 97.22,17.19 93.03,17.19 93.03,15.94 99.2,15.94 99.2,14.21 "
   id="polygon1336" />
	<path
   class="st0"
   d="M 106.44,14.21 102.16,21.89 H 104.43 L 105.32,20.3 H 110.06 L 110.95,21.89 H 113.22 L 108.94,14.21 Z M 106.31,18.57 107.7,16.03 109.09,18.57 Z"
   id="path1338" />
	<polygon
   class="st0"
   points="119.32,21.89 119.32,16.82 119.35,16.82 124.21,21.89 126.78,21.89 126.78,14.21 124.58,14.21 124.58,19.28 124.55,19.28 119.67,14.21 117.11,14.21 117.11,21.89 "
   id="polygon1340" />
	<polygon
   class="st0"
   points="135.35,15.94 135.35,21.89 137.56,21.89 137.56,15.94 141.23,15.94 141.23,14.21 131.68,14.21 131.68,15.94 "
   id="polygon1342" />
	<path
   class="st0"
   d="M 146.95,20.3 H 151.69 L 152.58,21.89 H 154.85 L 150.57,14.21 H 148.06 L 143.78,21.89 H 146.05 Z M 149.33,16.03 150.72,18.57 H 147.93 Z"
   id="path1344" />
	<path
   class="st0"
   d="M 164.56,20.33 C 162.89,20.33 161.52,19.99 160.31,19.19 L 159.17,20.56 C 160.84,21.65 162.56,22.12 164.58,22.12 167.58,22.12 169.2,21.07 169.2,19.43 169.2,18.04 167.86,17.42 165.02,17.18 163,17.01 161.93,17.08 161.93,16.44 161.93,16 162.72,15.7 164.23,15.7 165.43,15.7 166.61,15.96 167.83,16.5 L 168.87,15.13 C 167.6,14.28 166.05,13.94 164.04,13.94 161.25,13.94 159.66,14.96 159.66,16.5 159.66,17.85 160.89,18.65 163.34,18.84 165.61,19.01 166.85,19.08 166.85,19.59 166.84,20.04 166.06,20.33 164.56,20.33 Z"
   id="path1346" />
	<polygon
   class="st0"
   points="174.92,14.21 174.92,15.94 178.59,15.94 178.59,21.89 180.8,21.89 180.8,15.94 184.47,15.94 184.47,14.21 "
   id="polygon1348" />
	<rect
   x="190.82001"
   y="14.21"
   class="st0"
   width="2.21"
   height="7.6799998"
   id="rect1350" />
	<path
   class="st0"
   d="M 200.18,20.84 C 201.17,21.61 202.59,22.09 204.2,22.09 206.43,22.09 208.1,21.38 209.28,19.9 L 207.41,18.94 C 206.52,19.89 205.46,20.35 204.2,20.35 202.24,20.35 200.99,19.38 200.99,18.01 200.99,16.62 202.21,15.7 204.23,15.7 205.41,15.7 206.48,16.16 207.38,17.06 L 209.39,16.37 C 208.06,14.75 206.38,13.96 204.21,13.96 202.63,13.96 201.2,14.43 200.21,15.21 199.28,15.93 198.8,16.88 198.8,18.01 198.79,19.15 199.27,20.11 200.18,20.84 Z"
   id="path1352" />
</g>
</svg>
